<?xml version="1.0" encoding="utf-8"?>
<!-- Generator: Adobe Illustrator 16.0.0, SVG Export Plug-In . SVG Version: 6.00 Build 0)  -->
<!DOCTYPE svg PUBLIC "-//W3C//DTD SVG 1.1//EN" "http://www.w3.org/Graphics/SVG/1.1/DTD/svg11.dtd">
<svg version="1.1" id="Star_Wars_40th_Anniversary" xmlns="http://www.w3.org/2000/svg" xmlns:xlink="http://www.w3.org/1999/xlink"
	 x="0px" y="0px" width="494.9px" height="215.6px" viewBox="0 0 494.9 215.6" enable-background="new 0 0 494.9 215.6"
	 xml:space="preserve">
<g>
	<g>
		<path d="M489.2,202.8l-3.6,10.1l-3.7-10.1l-2.1,0v12.5h1.6l0-9.4l3.2,9.4l1.8,0l3.3-9.6l0,9.6h1.6l0-12.5L489.2,202.8z
			 M468.5,204.5l4.2,0l0,10.7h1.6l0-10.8l4.2,0v-1.6l-10,0L468.5,204.5z"/>
		<path d="M430.2,112.6c-4.3,0-8.5,0.9-12.4,2.4c-4.4,1.7-8.6,4.1-11.8,7.6c-4.5,4.9-7.8,11.1-8.4,17.7c-0.7,7.5,1.8,15.1,5.8,21.4
			c1.2,1.9,2.6,3.5,4.1,5.1c2.9,3.3,6,6.5,9.1,9.6c0.4,0.5,1,0.9,0.8,1.7c-0.3,0.9-1.3,1-2,1c-11.1,0-44.1,0-50.3,0
			c-2.1,0-4.7-0.5-5.8-2.6c-0.2-0.5,0.1-0.9,0.5-1.2c5.4-3.3,10.8-7.1,14.1-12.6c2.9-4.9,4.3-10.6,4.3-16.3c0-3.3-0.3-6.6-1.2-9.8
			c-1.7-6.1-5.4-11.4-10.3-15.5c-5.3-4.5-12-7.2-18.8-8.4c-2.2-0.4-5.9-0.4-9-0.4c-4.3,0-67.1,0-67.1,0l0,103h40.8v-29
			c0,0,15.5,15.3,21.7,21.4c4.8,4.7,11.5,6.8,18,7.5c27.1,0.1,54.1,0,81.2,0c7.2,0,14.4-2.5,20-7.2c4.5-3.7,7.8-8.8,9.6-14.3
			c1.9-5.6,2-11.7,0.9-17.5c-1-5.2-3.4-10-6.8-14.1c-4.2-5-8.8-9.6-13.2-14.4c-0.4-0.5-1.1-1-0.7-1.7c0.4-0.6,1.4-0.4,1.9-0.4
			c1.7,0,49.7,0,49.7,0v-33.4C494.9,112.6,439.3,112.6,430.2,112.6z M338.2,154c-1.9,1.1-4.2,0.8-6.3,0.8c-6,0-18.9,0-18.9,0l0-13.1
			c0,0,14.6,0,21.3,0c3.1,0,6.6,2,6.9,5.3C341.9,149.7,340.7,152.8,338.2,154z"/>
		<path d="M231.3,112.6H174l-30.9,103h38.5l4.6-14.9h35l4.6,14.9H263L231.3,112.6z M194.7,172.7l8.9-28.9l8.9,28.9H194.7z"/>
		<polygon points="0,112.6 41.7,112.6 49.7,140.5 57.8,112.6 100.5,112.6 109,140.5 117.6,112.6 156.5,112.6 155.3,117.2 
			125.4,215.6 90.4,215.6 78.3,176.2 66.2,215.6 31.7,215.6 		"/>
		<path d="M446.4,66.6c-2.3-0.1-4.9,0-6.9-1.3c-0.6-0.5-1.5-1.5-0.6-2.2c4.3-2.8,8.7-5.6,12-9.5c3.9-4.6,6.1-10.5,6.5-16.5
			c0.4-5,0-10.2-1.8-15c-2.3-6.2-6.8-11.5-12.2-15.3c-4.6-3.2-9.9-5.2-15.4-6.3c-3.2-0.7-6.4-0.5-9.6-0.5c-22.4,0-67.1,0-67.1,0
			v103.2h40.8V74.1c0,0,17.1,16.9,21.6,21.2c4.2,4,9.8,6.3,15.3,7.3c2.9,0.5,6.3,0.5,9.5,0.5c3.6,0,56.6,0,56.6,0V66.6
			C494.9,66.6,462.5,66.6,446.4,66.6z M419.9,39.3c-1.1,1.8-3.2,2.9-5.3,2.9c-6.6,0-22.1,0-22.1,0V29.1c0,0,15,0,21.3,0
			c2.6,0,5.5,1.4,6.5,4C420.9,35.1,420.9,37.5,419.9,39.3z"/>
		<path d="M312.7,0h-57.3l-30.9,103.2H263l4.6-14.9h35l4.6,14.9h37.3L312.7,0z M276.1,60.2l8.9-28.9l8.9,28.9H276.1z"/>
		<path d="M80.7,3.9C85.5,1.7,90.6,0,95.9,0C143.6,0,239,0,239,0l0,33.6l-44.6,0.1v69.5h-36.6V33.5c0,0-31.8,0-47.6,0
			c-0.9,0-0.7,1.3-0.2,1.8c4.2,4.3,8.7,9.5,12.8,13.9c2.8,3,4.9,6.6,6.2,10.4c1.7,4.8,2.2,10,1.8,15.1C130.4,79,129,83.2,127,87
			c-4.6,8.5-13.4,14.6-22.9,15.7c-2.7,0.3-8,0.4-10.7,0.4c-7.6,0-93.3,0-93.3,0V66.6c0,0,54.6,0,81.7,0c0.7,0,1.6,0,1.8-0.8
			c0.4-1-0.6-1.7-1.2-2.3c-3.4-4.1-7.4-7.9-10.9-11.9c-3.9-4.4-5.7-9.2-6.9-14.5c-1.1-4.7-1.2-9.6,0.2-14.3
			C67.1,14.8,72.9,7.5,80.7,3.9z"/>
	</g>
</g>
</svg>
